<svg xmlns="http://www.w3.org/2000/svg" width="307.895" height="258.632" viewBox="0 0 307.895 258.632">
  <path id="Icon_awesome-user-cog" data-name="Icon awesome-user-cog" d="M293.734,188.569a62.164,62.164,0,0,0,0-21.519l12.413-7.527a3.74,3.74,0,0,0,1.588-4.294,76.775,76.775,0,0,0-15.974-29,3.39,3.39,0,0,0-4.33-.707l-12.413,7.527a55.9,55.9,0,0,0-17.754-10.759V107.241a3.642,3.642,0,0,0-2.742-3.586,69.229,69.229,0,0,0-31.851,0,3.642,3.642,0,0,0-2.742,3.586v15.053a55.9,55.9,0,0,0-17.754,10.759l-12.413-7.527a3.4,3.4,0,0,0-4.33.707,76.775,76.775,0,0,0-15.974,29,3.806,3.806,0,0,0,1.588,4.294l12.413,7.527a62.164,62.164,0,0,0,0,21.519L171.044,196.1a3.74,3.74,0,0,0-1.588,4.294,77.159,77.159,0,0,0,15.974,29,3.39,3.39,0,0,0,4.33.707l12.413-7.527a55.9,55.9,0,0,0,17.754,10.759v15.053a3.642,3.642,0,0,0,2.742,3.587,69.229,69.229,0,0,0,31.851,0,3.642,3.642,0,0,0,2.742-3.587V233.324a55.9,55.9,0,0,0,17.754-10.759l12.413,7.527a3.4,3.4,0,0,0,4.33-.707,76.775,76.775,0,0,0,15.974-29,3.806,3.806,0,0,0-1.588-4.294l-12.413-7.527Zm-55.09,13.74c-12.894,0-23.335-11.012-23.335-24.5s10.489-24.5,23.335-24.5,23.335,11.012,23.335,24.5S251.538,202.309,238.644,202.309ZM107.775,129.316c34.016,0,61.585-28.945,61.585-64.658S141.791,0,107.775,0,46.189,28.945,46.189,64.658,73.758,129.316,107.775,129.316Zm96.8,114.414c-1.107-.606-2.213-1.313-3.272-1.97l-3.8,2.324a18.209,18.209,0,0,1-23.335-3.688,93.3,93.3,0,0,1-19.342-35.158,20.2,20.2,0,0,1,8.612-23.085l3.8-2.324q-.072-1.97,0-3.94l-3.8-2.324a20.176,20.176,0,0,1-8.612-23.085c.433-1.465,1.059-2.93,1.54-4.395-1.828-.152-3.609-.606-5.485-.606h-8.035a80.149,80.149,0,0,1-70.15,0H64.665C28.964,145.48,0,175.89,0,213.371v21.014c0,13.386,10.344,24.247,23.095,24.247h169.36a22.316,22.316,0,0,0,13.087-4.294,20.563,20.563,0,0,1-.962-5.961Z"/>
</svg>
