<svg xmlns="http://www.w3.org/2000/svg" width="75.273" height="65.864" viewBox="0 0 75.273 65.864">
  <path id="Icon_awesome-window-close" data-name="Icon awesome-window-close" d="M68.216,2.25H7.057A7.059,7.059,0,0,0,0,9.307v51.75a7.059,7.059,0,0,0,7.057,7.057H68.216a7.059,7.059,0,0,0,7.057-7.057V9.307A7.059,7.059,0,0,0,68.216,2.25ZM55.925,44.959a1.81,1.81,0,0,1,0,2.558l-5.954,5.954a1.81,1.81,0,0,1-2.558,0l-9.777-9.865L27.86,53.471a1.81,1.81,0,0,1-2.558,0l-5.954-5.954a1.81,1.81,0,0,1,0-2.558l9.865-9.777-9.865-9.777a1.81,1.81,0,0,1,0-2.558L25.3,16.893a1.81,1.81,0,0,1,2.558,0l9.777,9.865,9.777-9.865a1.81,1.81,0,0,1,2.558,0l5.954,5.954a1.81,1.81,0,0,1,0,2.558l-9.865,9.777Z" transform="translate(0 -2.25)" fill="red"/>
</svg>
